<?xml version="1.0" encoding="utf-8"?>
<!-- Generator: Adobe Illustrator 21.1.0, SVG Export Plug-In . SVG Version: 6.00 Build 0)  -->
<svg version="1.1" id="Capa_1" xmlns="http://www.w3.org/2000/svg" xmlns:xlink="http://www.w3.org/1999/xlink" x="0px" y="0px"
	 viewBox="0 0 500 500" style="enable-background:new 0 0 500 500;" xml:space="preserve">
<style type="text/css">
	.st0{fill:none;stroke:#0082C7;stroke-width:17;stroke-linecap:round;stroke-linejoin:round;stroke-miterlimit:10;}
</style>
<g>
	<g>
		<path class="st0" d="M235.060791,47.8081055c-18.2094269,33.029892-32.0801544,68.7792511-40.8950958,106.4735107
			c100.384964,29.6171417,185.1117401,95.7115173,238.7392426,183.0405579
			c0.2062988-1.6538391,0.3334351-3.3266907,0.3334351-5.0190125V167.6791992
			c0-14.4705811-7.7198792-27.8413391-20.2516174-35.0768433L270.4178772,50.2905807
			C259.5525208,44.0173607,246.5074158,43.2034187,235.060791,47.8081055z"/>
		<g>
			<path class="st0" d="M194.1652527,345.7189026c-7.1896515-30.7450562-11.0253754-62.7793579-11.0253754-95.7179871
				c0-73.322525,18.859024-142.2220154,51.9209137-202.1932373c-1.7559052,0.7062492-3.4793549,1.5206223-5.1457367,2.4829063
				L87.3461914,132.602356c-12.5317383,7.2355042-20.2516327,20.6062622-20.2516327,35.0768433v164.6239624
				c0,11.8562012,5.244339,22.914032,14.0095444,30.5236206
				C120.3354263,362.2857666,158.2437592,356.3169861,194.1652527,345.7189026z"/>
			<path class="st0" d="M87.3461914,367.3800049c-2.2640686-1.3069763-4.3088684-2.8747253-6.2412186-4.5523376
				C83.0377579,364.5052795,85.08255,366.0730286,87.3461914,367.3800049z"/>
		</g>
		<path class="st0" d="M361.4723816,250.0061035c-73.6226807,68.7641296-172.0151672,111.3268738-280.3687134,112.8206787
			c1.932785,1.6780701,3.9780121,3.2458191,6.2425156,4.5532227l142.5688629,82.3122253
			c12.5317383,7.2350464,27.9710846,7.2350464,40.5028229,0l142.5688782-82.3122253
			c12.5317383-7.2350769,20.2516174-20.6062622,20.2516174-35.0768433c0,1.6923218-0.1271362,3.3651733-0.3334351,5.0190125
			C413.0888062,305.0526123,389.0023193,275.707489,361.4723816,250.0061035z"/>
	</g>
</g>
<g>
</g>
<g>
</g>
<g>
</g>
<g>
</g>
<g>
</g>
<g>
</g>
</svg>
