<svg version="1.1" id="Capa_1" xmlns="http://www.w3.org/2000/svg" xmlns:xlink="http://www.w3.org/1999/xlink" x="0px" y="0px"
	 viewBox="0 0 360 70" style="enable-background:new 0 0 360 70;" xml:space="preserve">
<style type="text/css">
	.st0{fill:url(#SVGID_1_);}
	.st1{fill:url(#SVGID_2_);}
	.st2{fill:#1F5699;}
	.st3{fill:url(#SVGID_3_);}
	.st4{fill:#005EA9;}
	.st5{fill:#868686;}
</style>
<g>
	<g>
		<linearGradient id="SVGID_1_" gradientUnits="userSpaceOnUse" x1="24.9052525" y1="25.7738056" x2="62.3551598" y2="25.7738056">
			<stop  offset="0" style="stop-color:#00468D"/>
			<stop  offset="0.1505425" style="stop-color:#0061A7"/>
			<stop  offset="0.3206554" style="stop-color:#0079BE"/>
			<stop  offset="0.4253494" style="stop-color:#0082C7"/>
			<stop  offset="0.5667919" style="stop-color:#0079BE"/>
			<stop  offset="0.7966158" style="stop-color:#0061A7"/>
			<stop  offset="1" style="stop-color:#00468D"/>
		</linearGradient>
		<path class="st0" d="M31.311327,3.327734c-2.8524437,5.1740179-5.0252438,10.7740316-6.4060745,16.6787071
			c15.7249546,4.6394215,28.9971104,14.9928761,37.3976746,28.6726665c0.0323143-0.2590637,0.0522308-0.5211143,0.0522308-0.7862091
			V22.1051254c0-2.2667656-1.2092934-4.3612499-3.172348-5.4946671L36.8498955,3.7166052
			C35.1478729,2.7339265,33.1044006,2.6064258,31.311327,3.327734z"/>
		<g>
			<linearGradient id="SVGID_2_" gradientUnits="userSpaceOnUse" x1="18.1556644" y1="52.6743202" x2="18.1556644" y2="3.3276663">
				<stop  offset="0" style="stop-color:#00468D"/>
				<stop  offset="0.1436003" style="stop-color:#005FA5"/>
				<stop  offset="0.3180134" style="stop-color:#0077BD"/>
				<stop  offset="0.4253494" style="stop-color:#0080C6"/>
				<stop  offset="0.5703613" style="stop-color:#0077BD"/>
				<stop  offset="0.8059947" style="stop-color:#005FA5"/>
				<stop  offset="1" style="stop-color:#00468D"/>
			</linearGradient>
			<path class="st1" d="M24.9051838,49.9944267c-1.1262341-4.8161049-1.727087-9.8341675-1.727087-14.9938889
				c0-11.4857216,2.9541988-22.2785873,8.1332302-31.6728706c-0.2750549,0.1106319-0.5450287,0.2382004-0.8060608,0.3889389
				L8.172348,16.6104584C6.2092943,17.7438755,5,19.8383598,5,22.1051254v25.7877731
				c0,1.8572311,0.821507,3.5894012,2.1945472,4.7814217C13.3399973,52.5895653,19.2782078,51.654583,24.9051838,49.9944267z"/>
			<path class="st2" d="M8.172348,53.3875656c-0.3546586-0.2047348-0.6749692-0.4503174-0.9776654-0.7131119
				C7.4974465,52.9372482,7.8177571,53.1828308,8.172348,53.3875656z"/>
		</g>
		<linearGradient id="SVGID_3_" gradientUnits="userSpaceOnUse" x1="29.2805691" y1="65.9384537" x2="41.7775002" y2="31.6034088">
			<stop  offset="0" style="stop-color:#00468D"/>
			<stop  offset="0.1436003" style="stop-color:#005FA5"/>
			<stop  offset="0.3180134" style="stop-color:#0077BD"/>
			<stop  offset="0.4253494" style="stop-color:#0080C6"/>
			<stop  offset="0.5703613" style="stop-color:#0077BD"/>
			<stop  offset="0.8059947" style="stop-color:#005FA5"/>
			<stop  offset="1" style="stop-color:#00468D"/>
		</linearGradient>
		<path class="st3" d="M51.113266,35.0013504C39.5805283,45.7730103,24.1676846,52.4403191,7.1944795,52.6743202
			c0.3027639,0.2628593,0.6231418,0.5084457,0.9778686,0.7132454l22.3329182,12.8939209
			c1.9630527,1.1333466,4.3815746,1.1333466,6.3446293,0l22.3329163-12.8939209
			c1.9630547-1.1333504,3.172348-3.2279015,3.172348-5.4946671c0,0.2650948-0.0199165,0.5271454-0.0522308,0.7862091
			C59.1988029,43.6241913,55.4257355,39.0273857,51.113266,35.0013504z"/>
	</g>
	<g>
		<path class="st4" d="M78.1554718,16.6430492h7.2947769c6.3132553,0,10.6624985,4.3492393,10.6624985,9.8210526
			c0,5.4708385-4.3492432,9.8200779-10.6624985,9.8200779h-7.2947769V16.6430492z M85.4502487,31.5147057
			c3.0583801,0,5.1906891-2.1332779,5.1906891-5.0506039c0-2.9183006-2.132309-5.0506058-5.1906891-5.0506058h-1.9640121v10.1012096
			H85.4502487z"/>
		<path class="st4" d="M99.4863052,16.6430492h4.7704468l6.0321198,7.5759068l6.0331039-7.5759068h4.7694702v19.6411304h-5.3307571
			V24.6401634l-5.471817,6.8745422l-5.4708328-6.8745422v11.6440163h-5.3317337V16.6430492z"/>
		<path class="st4" d="M125.5914688,16.6430492h8.6975021c4.4893188,0,6.8745422,2.3852234,6.8745422,5.1906834
			c0,1.6556492-0.7295685,2.6099319-1.4873505,3.2548771c-0.4212189,0.3647861-0.9260864,0.6177063-1.4591522,0.8142052
			c0.7295685,0.2519474,1.3754883,0.5894966,1.9640045,1.0379429c0.9824982,0.7577839,1.9640198,1.964016,1.9640198,3.8716106
			c0,2.9465084-2.5252991,5.4718113-7.1546936,5.4718113h-9.3988724V16.6430492z M133.8677673,24.218956
			c1.1507874,0,1.8239441-0.7013645,1.8239441-1.6828861c0-0.9824944-0.7013702-1.6838589-1.8239441-1.6838589h-2.9455414v3.366745
			H133.8677673z M134.5700989,32.0750198c1.2616882,0,2.1040955-0.841444,2.1040955-1.964016
			c0-1.1216011-0.8424072-1.964016-2.1040955-1.964016h-3.6478729v3.9280319H134.5700989z"/>
	</g>
	<g>
		<path class="st5" d="M169.042038,32.6363068c-0.5885315,0.7295723-1.2626495,1.3754921-2.075882,1.964016
			c-1.374527,0.9824944-3.366745,1.964016-6.0603333,1.964016c-5.8930206,0-10.3823395-4.4893188-10.3823395-10.1002369
			c0-5.6118908,4.4893188-10.1012096,10.3823395-10.1012096c2.6935883,0,4.6575928,0.926075,6.0039062,1.9075966
			c0.757782,0.561285,1.4309387,1.1789913,1.9922333,1.8803577l-1.9640198,1.964016
			c-0.3930054-0.5330772-0.8978577-1.0379429-1.4873657-1.4591503c-1.0097198-0.7577858-2.5252991-1.48736-4.544754-1.48736
			c-4.0690918,0-7.2957611,3.2266655-7.2957611,7.2957497c0,4.0681095,3.2266693,7.294775,7.2957611,7.294775
			c2.019455,0,3.5632324-0.757782,4.601181-1.5428047c0.6177063-0.449419,1.1507874-0.9542866,1.5710144-1.5437832
			L169.042038,32.6363068z"/>
		<path class="st5" d="M180.8348846,16.3628922c5.8920441,0,10.3823395,4.4893188,10.3823395,10.1012096
			c0,5.610918-4.4902954,10.1002369-10.3823395,10.1002369c-5.8930206,0-10.3823395-4.4893188-10.3823395-10.1002369
			C170.4525452,20.852211,174.941864,16.3628922,180.8348846,16.3628922z M180.8348846,33.7588768
			c4.0681152,0,7.2947845-3.2266655,7.2947845-7.294775c0-4.0690842-3.2266693-7.2957497-7.2947845-7.2957497
			c-4.0690765,0-7.2957458,3.2266655-7.2957458,7.2957497C173.5391388,30.5322113,176.7658081,33.7588768,180.8348846,33.7588768z"
			/>
		<path class="st5" d="M195.1530457,16.6430492h2.8054504l10.8035431,14.450449v-14.450449h3.0856171v19.6411304h-2.8054504
			l-10.8035583-14.4504471v14.4504471h-3.0856018V16.6430492z"/>
		<path class="st5" d="M217.1881409,31.5147057c0.3074036,0.4202347,0.7003937,0.7850227,1.1770477,1.1216011
			c0.8151855,0.5612869,2.0486603,1.12257,3.7315369,1.12257c2.5544891,0,3.9280396-1.3745193,3.9280396-2.9465084
			c0-4.3482666-10.3813629-1.6828861-10.3813629-8.9786358c0-2.9455376,2.5544739-5.4708405,6.7354279-5.4708405
			c2.0194702,0,3.5622711,0.6167336,4.601181,1.2626514c0.616745,0.3647881,1.1498108,0.7859955,1.5700531,1.2626514
			l-2.1031189,2.1040936c-0.3093414-0.3365765-0.6459198-0.6449432-1.0389252-0.8978634
			c-0.6731415-0.4484463-1.7120667-0.9260731-3.0291901-0.9260731c-2.3852234,0-3.6478729,1.2344398-3.6478729,2.6653805
			c0,4.3492393,10.3813629,1.6838589,10.3813629,8.9786358c0,3.0865879-2.6653748,5.7519703-7.0155945,5.7519703
			c-2.3832703,0-4.1517639-0.7013664-5.3015747-1.4581795c-0.6731567-0.4212074-1.2354126-0.9260712-1.7120667-1.4873581
			L217.1881409,31.5147057z"/>
		<path class="st5" d="M232.3438568,16.6430492h3.0875549v11.7850685c0,3.0865879,2.2432098,5.330759,5.1906891,5.330759
			c2.8054504,0,5.1906738-2.3852215,5.1906738-5.330759V16.6430492h3.0856171v11.7850685
			c0,4.7694759-3.3657684,8.1362209-8.2762909,8.1362209s-8.278244-3.366745-8.278244-8.1362209V16.6430492z"/>
		<path class="st5" d="M253.8167114,16.6430492h3.0856018v16.6946201h9.5408936v2.9465103h-12.6264954V16.6430492z"/>
		<path class="st5" d="M271.3576355,19.5895596h-5.8910828v-2.9465103h14.8697205v2.9465103h-5.8910828v16.6946201h-3.0875549
			V19.5895596z"/>
		<path class="st5" d="M291.8460388,16.3628922c5.8930359,0,10.3813782,4.4893188,10.3813782,10.1012096
			c0,5.610918-4.4883423,10.1002369-10.3813782,10.1002369c-5.8930054,0-10.3813477-4.4893188-10.3813477-10.1002369
			C281.4646912,20.852211,285.9530334,16.3628922,291.8460388,16.3628922z M291.8460388,33.7588768
			c4.0681152,0,7.2957458-3.2266655,7.2957458-7.294775c0-4.0690842-3.2276306-7.2957497-7.2957458-7.2957497
			s-7.2957458,3.2266655-7.2957458,7.2957497C284.550293,30.5322113,287.7779236,33.7588768,291.8460388,33.7588768z"/>
		<path class="st5" d="M306.1651611,16.6430492h8.1362305c3.7879639,0,6.4533386,2.6935902,6.4533386,6.1731777
			c0,2.2169342-0.9533081,3.5632439-1.8793945,4.4328976c-0.5603027,0.5048656-1.1789856,0.8978634-1.8793945,1.1789932
			l4.4611206,7.8560619h-3.5078125l-4.0680847-7.2947769h-4.6303711v7.2947769h-3.0856323V16.6430492z M314.3013916,26.182972
			c1.992218,0,3.3677063-1.3745193,3.3677063-3.366745s-1.3754883-3.3667469-3.3677063-3.3667469h-5.0505981v6.7334919H314.3013916z
			"/>
		<path class="st5" d="M325.1107788,16.6430492h13.8891602v2.9465103h-10.8035583v5.0506039h8.5584106v2.9455376h-8.5584106
			v5.7519684h11.0837097v2.9465103h-14.1693115V16.6430492z"/>
		<path class="st5" d="M343.0758362,31.5147057c0.307373,0.4202347,0.7003784,0.7850227,1.1770325,1.1216011
			c0.8151855,0.5612869,2.048645,1.12257,3.7315369,1.12257c2.5544739,0,3.9280396-1.3745193,3.9280396-2.9465084
			c0-4.3482666-10.3813782-1.6828861-10.3813782-8.9786358c0-2.9455376,2.5545044-5.4708405,6.7354431-5.4708405
			c2.0194702,0,3.5622559,0.6167336,4.6011963,1.2626514c0.6167297,0.3647881,1.1498108,0.7859955,1.5700378,1.2626514
			l-2.1031189,2.1040936c-0.3093567-0.3365765-0.6459351-0.6449432-1.0389099-0.8978634
			c-0.6731567-0.4484463-1.7120667-0.9260731-3.0292053-0.9260731c-2.3852234,0-3.6478882,1.2344398-3.6478882,2.6653805
			C344.6186218,26.182972,355,23.5175915,355,30.8123684c0,3.0865879-2.6653748,5.7519703-7.0155945,5.7519703
			c-2.3832703,0-4.1517639-0.7013664-5.3015747-1.4581795c-0.6731567-0.4212074-1.2354126-0.9260712-1.7120667-1.4873581
			L343.0758362,31.5147057z"/>
	</g>
	<g>
		<g>
			<path class="st5" d="M79.2089844,48.8134155v3.0603218h-0.9824982v-7.8190956h2.4922256
				c0.7266617,0,1.2976761,0.2178993,1.7130432,0.6517525c0.4153748,0.4357986,0.6225739,1.0155678,0.6225739,1.7373619
				c0,0.7529221-0.1974716,1.3307457-0.5933914,1.7373619c-0.3949432,0.4066162-0.9533081,0.6167336-1.6731567,0.6322975H79.2089844
				z M79.2089844,47.9690552h1.5097275c0.4367752,0,0.7714081-0.130352,1.0038986-0.3929977
				c0.2324905-0.260704,0.3492203-0.6361923,0.3492203-1.1245193c0-0.4688721-0.1196442-0.8463058-0.3599243-1.1284103
				c-0.2402725-0.2840462-0.5690689-0.4260712-0.988327-0.4260712h-1.514595V47.9690552z"/>
			<path class="st5" d="M90.1175842,48.7103004h-1.3745193v3.1634369h-0.988327v-7.8190956h2.1916428
				c0.765564,0,1.3453369,0.1984444,1.7393036,0.5992241c0.3939743,0.3988342,0.5914459,0.9824944,0.5914459,1.7529259
				c0,0.4824905-0.1070099,0.9046707-0.3200455,1.264595s-0.5145874,0.630352-0.9046707,0.8132324l1.514595,3.3249168v0.0642014
				h-1.0583649L90.1175842,48.7103004z M88.7430649,47.8678856h1.1916428c0.4124527,0,0.7402725-0.1322975,0.9863815-0.3988342
				c0.2451401-0.2645912,0.3677063-0.6206245,0.3677063-1.0642052c0-1.0058403-0.4552536-1.5077896-1.3647919-1.5077896h-1.1809387
				V47.8678856z"/>
			<path class="st5" d="M102.1098557,48.6519356c0,1.0661507-0.2266541,1.8891144-0.6819153,2.4649925
				c-0.454277,0.5758781-1.1011658,0.8638153-1.9387207,0.8638153c-0.8054504,0-1.4416428-0.2801552-1.9095383-0.8404694
				c-0.4669266-0.5603142-0.7091522-1.3521461-0.7276306-2.3754959v-1.4727707c0-1.0447502,0.231514-1.8638191,0.6926117-2.4572067
				c0.462059-0.5914421,1.1070023-0.8871651,1.9338608-0.8871651c0.8239288,0,1.4649811,0.2821045,1.9251022,0.8502007
				c0.4601212,0.5680923,0.6955261,1.3774338,0.7062302,2.4299698V48.6519356z M101.1273575,47.28228
				c0-0.8268509-0.1352158-1.4416389-0.4056396-1.8443642c-0.2704315-0.4027252-0.6848297-0.6050606-1.2431946-0.6050606
				c-0.540863,0-0.9494247,0.2042809-1.2276382,0.6128426c-0.2772369,0.4085617-0.4173126,1.0097313-0.4212036,1.8035088v1.402729
				c0,0.7976685,0.1391068,1.40662,0.4163437,1.8249092c0.2772369,0.4202347,0.6916351,0.6284103,1.2431946,0.6284103
				s0.9601212-0.1926079,1.2247162-0.5797691c0.2645874-0.3852158,0.4027252-0.9786034,0.4134216-1.7762718V47.28228z"/>
			<path class="st5" d="M107.0622101,51.8737373v-7.8190956h1.8638229c0.9124527,0,1.6215973,0.2859917,2.1264648,0.8560333
				c0.5048676,0.5719872,0.757782,1.3735466,0.757782,2.4085693v1.3112907c0,1.0350227-0.2568054,1.8346367-0.768486,2.3968964
				c-0.511673,0.5642052-1.2548676,0.8463058-2.2286072,0.8463058H107.0622101z M108.0447006,44.8970566v6.1342659h0.7898865
				c0.6906662,0,1.1955338-0.1984444,1.5146027-0.5933876c0.3180923-0.3968887,0.481514-0.9844398,0.488327-1.7607079V47.290062
				c0-0.8249054-0.1585617-1.429966-0.4747086-1.8151817c-0.3171234-0.3852158-0.795723-0.5778236-1.4367752-0.5778236H108.0447006z
				"/>
			<path class="st5" d="M121.4348373,44.0546417v5.5583878c-0.006813,0.7412491-0.2217941,1.3210182-0.6439743,1.7393074
				c-0.4231491,0.4202347-1.011673,0.6284065-1.7675171,0.6284065c-0.7733459,0-1.3638153-0.2042809-1.772377-0.6147881
				c-0.4075928-0.4085617-0.6157608-0.9941673-0.6225739-1.7529259v-5.5583878h0.9776306v5.5175323
				c0,0.5252914,0.1118698,0.9182892,0.3356018,1.1770477c0.2237396,0.2587547,0.5846329,0.3891068,1.0817184,0.3891068
				c0.5019455,0,0.8638153-0.130352,1.0875549-0.3891068c0.2237396-0.2587585,0.3356018-0.6517563,0.3356018-1.1770477v-5.5175323
				H121.4348373z"/>
			<path class="st5" d="M131.2850647,49.3873482c-0.0428009,0.8385239-0.2781982,1.4805489-0.7062225,1.9260788
				c-0.4280243,0.4455261-1.0321045,0.6673164-1.8132324,0.6673164c-0.7840576,0-1.4066238-0.2976685-1.8686905-0.8930016
				c-0.4620667-0.5972786-0.6926117-1.4046745-0.6926117-2.4260788v-1.4163475c0-1.0175133,0.2363892-1.8210182,0.7110977-2.4124603
				s1.1215973-0.8852196,1.9416351-0.8852196c0.7558441,0,1.3404846,0.2237358,1.7539062,0.6751022
				c0.4134216,0.4513626,0.6381378,1.0992241,0.674118,1.9396935h-0.9941559
				c-0.0428009-0.638134-0.1770477-1.0914421-0.4027252-1.3638153c-0.2256927-0.272377-0.5690765-0.4085655-1.0311432-0.4085655
				c-0.5330658,0-0.9435806,0.2081757-1.2295685,0.6264648c-0.286972,0.4163437-0.4299698,1.0272408-0.4299698,1.8326912v1.433857
				c0,0.791832,0.1332703,1.398838,0.3998108,1.8210182c0.2675095,0.422184,0.6566238,0.6342468,1.1682968,0.6342468
				c0.5126495,0,0.8813171-0.126461,1.1070099-0.3813248c0.2256775-0.2548676,0.3647766-0.7101212,0.4182892-1.3696556H131.2850647z
				"/>
			<path class="st5" d="M140.4631195,44.8970566h-2.056427v6.9766808h-0.9834595v-6.9766808h-2.0515747v-0.8424149h5.0914612
				V44.8970566z"/>
			<path class="st5" d="M149.9855347,48.6519356c0,1.0661507-0.2266541,1.8891144-0.6819,2.4649925
				c-0.4542847,0.5758781-1.101181,0.8638153-1.938736,0.8638153c-0.8054504,0-1.4416351-0.2801552-1.9095306-0.8404694
				c-0.4669342-0.5603142-0.7091522-1.3521461-0.7276306-2.3754959v-1.4727707c0-1.0447502,0.2315216-1.8638191,0.6926117-2.4572067
				c0.4620514-0.5914421,1.1070099-0.8871651,1.9338531-0.8871651c0.8239288,0,1.4649811,0.2821045,1.9251099,0.8502007
				c0.4601135,0.5680923,0.6955261,1.3774338,0.7062225,2.4299698V48.6519356z M149.0030365,47.28228
				c0-0.8268509-0.1352081-1.4416389-0.4056396-1.8443642s-0.6848297-0.6050606-1.2431946-0.6050606
				c-0.540863,0-0.9494171,0.2042809-1.2276306,0.6128426c-0.2772369,0.4085617-0.4173126,1.0097313-0.4212036,1.8035088v1.402729
				c0,0.7976685,0.1390991,1.40662,0.4163361,1.8249092c0.2772369,0.4202347,0.6916351,0.6284103,1.2431946,0.6284103
				s0.9601288-0.1926079,1.2247162-0.5797691c0.2645874-0.3852158,0.4027252-0.9786034,0.4134216-1.7762718V47.28228z"/>
			<path class="st5" d="M157.3007355,48.7103004h-1.3745117v3.1634369h-0.988327v-7.8190956h2.1916351
				c0.765564,0,1.3453369,0.1984444,1.7393036,0.5992241c0.3939819,0.3988342,0.5914459,0.9824944,0.5914459,1.7529259
				c0,0.4824905-0.1069946,0.9046707-0.3200378,1.264595c-0.213028,0.3599243-0.5145874,0.630352-0.9046783,0.8132324
				l1.5146027,3.3249168v0.0642014h-1.0583649L157.3007355,48.7103004z M155.9262238,47.8678856h1.1916351
				c0.4124603,0,0.7402802-0.1322975,0.9863892-0.3988342c0.2451324-0.2645912,0.3677063-0.6206245,0.3677063-1.0642052
				c0-1.0058403-0.4552612-1.5077896-1.3647919-1.5077896h-1.1809387V47.8678856z"/>
			<path class="st5" d="M167.9573975,48.2589378h-2.7665405v2.7723846h3.2227783v0.8424149h-4.2052765v-7.8190956h4.1517639
				v0.8424149h-3.1692657v2.5194664h2.7665405V48.2589378z"/>
			<path class="st5" d="M176.517746,49.8970757c0-0.3891068-0.1050568-0.6887169-0.3161469-0.8968887
				c-0.2120667-0.2062263-0.5933838-0.4085617-1.1439819-0.6070061c-0.5515442-0.1964989-0.9737244-0.4027252-1.265564-0.618679
				c-0.2918243-0.2178993-0.5097351-0.4649849-0.6546631-0.7412491c-0.1449432-0.2782135-0.2179108-0.5953331-0.2179108-0.9533119
				c0-0.6206245,0.2071991-1.1303558,0.620636-1.5311356c0.4134216-0.4007797,0.955246-0.6011696,1.6245117-0.6011696
				c0.4581757,0,0.8667297,0.1011696,1.2247162,0.3054504c0.3579712,0.2042809,0.6332703,0.4902725,0.8268433,0.8540878
				c0.1935883,0.3657608,0.2898865,0.7665405,0.2898865,1.2023392h-0.988327c0-0.4824905-0.1157532-0.8579788-0.3492279-1.1225739
				c-0.2324829-0.2645912-0.5671234-0.3968887-1.003891-0.3968887c-0.3978577,0-0.7052612,0.1108971-0.9241333,0.3326874
				c-0.2178955,0.2237358-0.3268433,0.5350227-0.3268433,0.937748c0,0.3287964,0.1177063,0.6050606,0.3540802,0.8287964
				c0.2363892,0.2217903,0.601181,0.4202347,1.0953369,0.5953331c0.7704315,0.2548637,1.3210297,0.5700417,1.6517639,0.9416389
				c0.3317108,0.3715973,0.4970856,0.8599243,0.4970856,1.4610939c0,0.6342468-0.2062225,1.1400833-0.6177063,1.5214081
				s-0.9718018,0.5719872-1.6809387,0.5719872c-0.4552612,0-0.874527-0.0992241-1.2597351-0.2976685
				c-0.3852234-0.1984444-0.6877441-0.4766541-0.9075928-0.8365784c-0.2208252-0.3599243-0.3307343-0.772377-0.3307343-1.2393036
				h0.988327c0,0.484436,0.1352081,0.8599243,0.4056396,1.1284103c0.2704315,0.2684822,0.6381378,0.4027252,1.1040955,0.4027252
				c0.4328766,0,0.7587585-0.1108971,0.9776306-0.3326874C176.4087982,50.5838509,176.517746,50.2803459,176.517746,49.8970757z"/>
			<path class="st5" d="M191.8300629,49.8270378h-2.6430054l-0.6070099,2.0466995h-1.0097198l2.5184937-7.8190956h0.8443604
				l2.5233459,7.8190956h-1.0097198L191.8300629,49.8270378z M189.4448395,48.984623h2.132309l-1.0681-3.5564346
				L189.4448395,48.984623z"/>
			<path class="st5" d="M201.3670654,49.8970757c0-0.3891068-0.1050568-0.6887169-0.3151703-0.8968887
				c-0.2120667-0.2062263-0.5933838-0.4085617-1.1439667-0.6070061c-0.552536-0.1964989-0.9747162-0.4027252-1.2665558-0.618679
				c-0.2918243-0.2178993-0.5097198-0.4649849-0.6536865-0.7412491c-0.1459198-0.2782135-0.2179108-0.5953331-0.2179108-0.9533119
				c0-0.6206245,0.2062378-1.1303558,0.620636-1.5311356c0.4124451-0.4007797,0.955246-0.6011696,1.6245117-0.6011696
				c0.4571991,0,0.8657684,0.1011696,1.2237396,0.3054504c0.3579865,0.2042809,0.6342468,0.4902725,0.8268585,0.8540878
				c0.1945496,0.3657608,0.2898865,0.7665405,0.2898865,1.2023392h-0.9883423c0-0.4824905-0.1147766-0.8579788-0.3482513-1.1225739
				c-0.2334595-0.2645912-0.5680847-0.3968887-1.003891-0.3968887c-0.3988342,0-0.7062225,0.1108971-0.924118,0.3326874
				c-0.2179108,0.2237358-0.3268585,0.5350227-0.3268585,0.937748c0,0.3287964,0.1167297,0.6050606,0.3540955,0.8287964
				c0.2353973,0.2217903,0.6011658,0.4202347,1.0953217,0.5953331c0.7704315,0.2548637,1.3210297,0.5700417,1.6517639,0.9416389
				s0.496109,0.8599243,0.496109,1.4610939c0,0.6342468-0.2062225,1.1400833-0.6167297,1.5214081
				c-0.4124603,0.3813248-0.9727631,0.5719872-1.6809387,0.5719872c-0.4552612,0-0.8754883-0.0992241-1.2607117-0.2976685
				c-0.3852081-0.1984444-0.6867676-0.4766541-0.9066162-0.8365784c-0.2217865-0.3599243-0.3307343-0.772377-0.3307343-1.2393036
				h0.988327c0,0.484436,0.1342468,0.8599243,0.4046631,1.1284103c0.2704315,0.2684822,0.6381378,0.4027252,1.105072,0.4027252
				c0.4319,0,0.7587585-0.1108971,0.9766541-0.3326874S201.3670654,50.2803459,201.3670654,49.8970757z"/>
			<path class="st5" d="M210.8320923,48.2589378h-2.7665558v2.7723846h3.221817v0.8424149h-4.2042999v-7.8190956h4.1517639
				v0.8424149h-3.169281v2.5194664h2.7665558V48.2589378z"/>
			<path class="st5" d="M219.3924408,49.8970757c0-0.3891068-0.1050568-0.6887169-0.3171234-0.8968887
				c-0.2120667-0.2062263-0.5933838-0.4085617-1.1439819-0.6070061c-0.5505829-0.1964989-0.9727631-0.4027252-1.2645874-0.618679
				c-0.2918396-0.2178993-0.5097351-0.4649849-0.6556549-0.7412491c-0.1439667-0.2782135-0.2178955-0.5953331-0.2178955-0.9533119
				c0-0.6206245,0.2081757-1.1303558,0.620636-1.5311356c0.4143982-0.4007797,0.955246-0.6011696,1.6245117-0.6011696
				c0.4591522,0,0.8677063,0.1011696,1.2256927,0.3054504c0.3579712,0.2042809,0.6322937,0.4902725,0.8268433,0.8540878
				c0.1926117,0.3657608,0.2898865,0.7665405,0.2898865,1.2023392h-0.988327c0-0.4824905-0.1167297-0.8579788-0.3502045-1.1225739
				c-0.2315063-0.2645912-0.5661469-0.3968887-1.003891-0.3968887c-0.3968811,0-0.7042847,0.1108971-0.9241333,0.3326874
				c-0.2178955,0.2237358-0.3268433,0.5350227-0.3268433,0.937748c0,0.3287964,0.1186829,0.6050606,0.3540802,0.8287964
				c0.2373657,0.2217903,0.601181,0.4202347,1.0953369,0.5953331c0.7704315,0.2548637,1.3210297,0.5700417,1.6517639,0.9416389
				c0.3326874,0.3715973,0.4980621,0.8599243,0.4980621,1.4610939c0,0.6342468-0.2062378,1.1400833-0.6186829,1.5214081
				c-0.4105072,0.3813248-0.9708252,0.5719872-1.6809387,0.5719872c-0.4552612,0-0.8735504-0.0992241-1.2587585-0.2976685
				c-0.3852234-0.1984444-0.6887207-0.4766541-0.9085693-0.8365784s-0.3307495-0.772377-0.3307495-1.2393036h0.9883423
				c0,0.484436,0.1361847,0.8599243,0.4066162,1.1284103c0.2704315,0.2684822,0.6381378,0.4027252,1.1031189,0.4027252
				c0.4338531,0,0.7587585-0.1108971,0.9785919-0.3326874C219.283493,50.5838509,219.3924408,50.2803459,219.3924408,49.8970757z"/>
			<path class="st5" d="M230.1920929,48.6519356c0,1.0661507-0.2256775,1.8891144-0.6809387,2.4649925
				c-0.455246,0.5758781-1.1011658,0.8638153-1.9396973,0.8638153c-0.8054504,0-1.4416351-0.2801552-1.9085693-0.8404694
				c-0.4669189-0.5603142-0.7101135-1.3521461-0.7276306-2.3754959v-1.4727707c0-1.0447502,0.2315216-1.8638191,0.6926117-2.4572067
				c0.4610901-0.5914421,1.1070099-0.8871651,1.9338684-0.8871651c0.8229523,0,1.4649811,0.2821045,1.9241333,0.8502007
				c0.4610901,0.5680923,0.6964874,1.3774338,0.7062225,2.4299698V48.6519356z M229.2095947,47.28228
				c0-0.8268509-0.1342316-1.4416389-0.4046631-1.8443642s-0.6848297-0.6050606-1.2431946-0.6050606
				c-0.540863,0-0.9494324,0.2042809-1.2276306,0.6128426c-0.2782135,0.4085617-0.4182892,1.0097313-0.4221802,1.8035088v1.402729
				c0,0.7976685,0.1400757,1.40662,0.4163361,1.8249092c0.2782135,0.4202347,0.6926117,0.6284103,1.2431946,0.6284103
				c0.552536,0,0.9610901-0.1926079,1.2256927-0.5797691c0.2645874-0.3852158,0.4027252-0.9786034,0.4124451-1.7762718V47.28228z"/>
			<path class="st5" d="M237.5092468,48.7103004h-1.3754883v3.1634369h-0.9883423v-7.8190956h2.192627
				c0.7645874,0,1.3443604,0.1984444,1.7393036,0.5992241c0.3929901,0.3988342,0.5914459,0.9824944,0.5914459,1.7529259
				c0,0.4824905-0.1070099,0.9046707-0.3210144,1.264595c-0.2120667,0.3599243-0.5136261,0.630352-0.9046783,0.8132324
				l1.515564,3.3249168v0.0642014h-1.0583649L237.5092468,48.7103004z M236.1337585,47.8678856h1.1926117
				c0.4124451,0,0.7393036-0.1322975,0.9863739-0.3988342c0.2451477-0.2645912,0.3677063-0.6206245,0.3677063-1.0642052
				c0-1.0058403-0.455246-1.5077896-1.3657532-1.5077896h-1.1809387V47.8678856z"/>
			<path class="st5" d="M248.1649323,48.2589378h-2.7665558v2.7723846h3.2218018v0.8424149h-4.2042847v-7.8190956h4.1517639
				v0.8424149h-3.169281v2.5194664h2.7665558V48.2589378z"/>
			<path class="st5" d="M256.7252808,49.8970757c0-0.3891068-0.105072-0.6887169-0.3171387-0.8968887
				c-0.2120361-0.2062263-0.5933685-0.4085617-1.1439667-0.6070061c-0.5505829-0.1964989-0.9727631-0.4027252-1.2645874-0.618679
				c-0.2918396-0.2178993-0.5097351-0.4649849-0.6556549-0.7412491c-0.1439667-0.2782135-0.2178955-0.5953331-0.2178955-0.9533119
				c0-0.6206245,0.2081757-1.1303558,0.6206207-1.5311356c0.4143982-0.4007797,0.9552612-0.6011696,1.624527-0.6011696
				c0.4591522,0,0.8677063,0.1011696,1.2256775,0.3054504s0.6322937,0.4902725,0.8268738,0.8540878
				c0.1925964,0.3657608,0.289856,0.7665405,0.289856,1.2023392h-0.9883118c0-0.4824905-0.1167297-0.8579788-0.3501892-1.1225739
				c-0.2315369-0.2645912-0.5661621-0.3968887-1.0039062-0.3968887c-0.3968964,0-0.7042847,0.1108971-0.9241333,0.3326874
				c-0.2178955,0.2237358-0.3268433,0.5350227-0.3268433,0.937748c0,0.3287964,0.1186829,0.6050606,0.3540802,0.8287964
				c0.2373657,0.2217903,0.601181,0.4202347,1.0953369,0.5953331c0.7704315,0.2548637,1.3210297,0.5700417,1.6517487,0.9416389
				c0.3327026,0.3715973,0.4980774,0.8599243,0.4980774,1.4610939c0,0.6342468-0.2062378,1.1400833-0.6186829,1.5214081
				c-0.4105225,0.3813248-0.9708252,0.5719872-1.6809387,0.5719872c-0.4552612,0-0.8735504-0.0992241-1.2587738-0.2976685
				c-0.3852081-0.1984444-0.6887054-0.4766541-0.9085541-0.8365784s-0.3307495-0.772377-0.3307495-1.2393036h0.9883423
				c0,0.484436,0.1361847,0.8599243,0.4066162,1.1284103c0.2704163,0.2684822,0.6381226,0.4027252,1.1031189,0.4027252
				c0.4338531,0,0.7587585-0.1108971,0.9786072-0.3326874C256.616333,50.5838509,256.7252808,50.2803459,256.7252808,49.8970757z"/>
			<path class="st5" d="M268.390686,51.8737373v-7.8190956h1.8638306c0.9124451,0,1.6225586,0.2859917,2.1264648,0.8560333
				c0.5058289,0.5719872,0.7587585,1.3735466,0.7587585,2.4085693v1.3112907c0,1.0350227-0.2568054,1.8346367-0.7684937,2.3968964
				c-0.5116577,0.5642052-1.2548523,0.8463058-2.2295837,0.8463058H268.390686z M269.3731995,44.8970566v6.1342659h0.7898865
				c0.6906433,0,1.1965027-0.1984444,1.515564-0.5933876c0.3171082-0.3968887,0.4805298-0.9844398,0.4883118-1.7607079V47.290062
				c0-0.8249054-0.1595154-1.429966-0.4747009-1.8151817c-0.3171082-0.3852158-0.7957153-0.5778236-1.4377441-0.5778236H269.3731995
				z"/>
			<path class="st5" d="M281.849884,48.2589378h-2.7665405v2.7723846h3.2237549v0.8424149h-4.2062378v-7.8190956h4.1517639
				v0.8424149h-3.169281v2.5194664h2.7665405V48.2589378z"/>
			<path class="st5" d="M296.3616333,49.8970757c0-0.3891068-0.105072-0.6887169-0.3171387-0.8968887
				c-0.2120667-0.2062263-0.5933838-0.4085617-1.1439514-0.6070061c-0.5505981-0.1964989-0.9727783-0.4027252-1.2646179-0.618679
				c-0.2918091-0.2178993-0.5097351-0.4649849-0.6556396-0.7412491c-0.1439514-0.2782135-0.2178955-0.5953331-0.2178955-0.9533119
				c0-0.6206245,0.2081604-1.1303558,0.620636-1.5311356c0.4143982-0.4007797,0.9552307-0.6011696,1.6245117-0.6011696
				c0.459137,0,0.8677063,0.1011696,1.2256775,0.3054504s0.6322937,0.4902725,0.8268433,0.8540878
				c0.192627,0.3657608,0.2898865,0.7665405,0.2898865,1.2023392h-0.9883118c0-0.4824905-0.1167297-0.8579788-0.3501892-1.1225739
				c-0.2315369-0.2645912-0.5661621-0.3968887-1.0039062-0.3968887c-0.3968811,0-0.7042847,0.1108971-0.9241333,0.3326874
				c-0.2178955,0.2237358-0.3268433,0.5350227-0.3268433,0.937748c0,0.3287964,0.1186829,0.6050606,0.3540955,0.8287964
				c0.2373352,0.2217903,0.6011658,0.4202347,1.0953369,0.5953331c0.7704163,0.2548637,1.3210144,0.5700417,1.6517334,0.9416389
				c0.3327026,0.3715973,0.4980774,0.8599243,0.4980774,1.4610939c0,0.6342468-0.2062378,1.1400833-0.6186829,1.5214081
				c-0.4105225,0.3813248-0.9708252,0.5719872-1.6809387,0.5719872c-0.4552612,0-0.8735657-0.0992241-1.2587585-0.2976685
				c-0.3852234-0.1984444-0.6887207-0.4766541-0.9085693-0.8365784s-0.3307495-0.772377-0.3307495-1.2393036h0.9883423
				c0,0.484436,0.1361694,0.8599243,0.4066162,1.1284103c0.2704163,0.2684822,0.6381226,0.4027252,1.1031189,0.4027252
				c0.4338379,0,0.7587585-0.1108971,0.9786072-0.3326874C296.2526855,50.5838509,296.3616333,50.2803459,296.3616333,49.8970757z"
				/>
			<path class="st5" d="M305.824707,48.2589378h-2.7665405v2.7723846h3.2237244v0.8424149h-4.2062378v-7.8190956h4.1517639
				v0.8424149h-3.1692505v2.5194664h2.7665405V48.2589378z"/>
			<path class="st5" d="M315.8636475,50.9029198l-0.1712036,0.2140083
				c-0.4941711,0.5758781-1.2178955,0.8638153-2.1712036,0.8638153c-0.8443604,0-1.5078125-0.2801552-1.9883423-0.8404694
				c-0.4824829-0.5603142-0.7276306-1.3521461-0.7393188-2.3754959v-1.536972c0-1.0953369,0.2198486-1.9163513,0.6575928-2.4611015
				c0.4396973-0.5466919,1.0953369-0.8190689,1.9689026-0.8190689c0.7451172,0,1.3268433,0.2062263,1.7490234,0.618679
				c0.4202271,0.4143982,0.6517639,1.0058403,0.6945496,1.7762718h-0.9824829
				c-0.0389099-0.4863815-0.1751099-0.8677063-0.4066162-1.142025c-0.2295837-0.2743225-0.5797729-0.410511-1.048645-0.410511
				c-0.5622559,0-0.9747314,0.1828804-1.2354126,0.5505867c-0.2626648,0.3677063-0.3968811,0.9533119-0.4085693,1.7587624v1.5953369
				c0,0.787941,0.1498108,1.3910561,0.451355,1.8132401c0.3015747,0.4202347,0.7315369,0.630352,1.2937927,0.630352
				c0.5311279,0,0.9338684-0.1284065,1.2081604-0.3852158l0.1459351-0.1322975V48.823143h-1.4280396v-0.8424149h2.4105225
				V50.9029198z"/>
			<path class="st5" d="M325.5621338,44.0546417v5.5583878c-0.0058289,0.7412491-0.2218018,1.3210182-0.6439819,1.7393074
				c-0.4221802,0.4202347-1.0116577,0.6284065-1.7665405,0.6284065c-0.7743225,0-1.3638-0.2042809-1.7723694-0.6147881
				c-0.4085693-0.4085617-0.6167297-0.9941673-0.6225586-1.7529259v-5.5583878h0.9766541v5.5175323
				c0,0.5252914,0.1128235,0.9182892,0.3365784,1.1770477c0.2237244,0.2587547,0.5836487,0.3891068,1.0816956,0.3891068
				c0.5019531,0,0.8638306-0.130352,1.0875549-0.3891068c0.2237549-0.2587585,0.3346252-0.6517563,0.3346252-1.1770477v-5.5175323
				H325.5621338z"/>
			<path class="st5" d="M332.8734436,48.7103004h-1.3754883v3.1634369h-0.9883423v-7.8190956h2.192627
				c0.7645874,0,1.3443604,0.1984444,1.7393188,0.5992241c0.3929749,0.3988342,0.5914307,0.9824944,0.5914307,1.7529259
				c0,0.4824905-0.1069946,0.9046707-0.3210144,1.264595c-0.2120667,0.3599243-0.5136108,0.630352-0.9046631,0.8132324
				l1.515564,3.3249168v0.0642014h-1.0583801L332.8734436,48.7103004z M331.4979553,47.8678856h1.192627
				c0.4124451,0,0.7392883-0.1322975,0.9863586-0.3988342c0.2451477-0.2645912,0.3677063-0.6206245,0.3677063-1.0642052
				c0-1.0058403-0.4552307-1.5077896-1.3657532-1.5077896h-1.1809387V47.8678856z"/>
			<path class="st5" d="M344.8657227,48.6519356c0,1.0661507-0.2276306,1.8891144-0.6828918,2.4649925
				c-0.4533081,0.5758781-1.1011658,0.8638153-1.9377441,0.8638153c-0.8054504,0-1.4416504-0.2801552-1.9105225-0.8404694
				c-0.4669189-0.5603142-0.7081604-1.3521461-0.7276306-2.3754959v-1.4727707c0-1.0447502,0.2315369-1.8638191,0.692627-2.4572067
				c0.4630127-0.5914421,1.1069946-0.8871651,1.9338379-0.8871651c0.8249207,0,1.4649963,0.2821045,1.9260864,0.8502007
				c0.459137,0.5680923,0.6945496,1.3774338,0.7062378,2.4299698V48.6519356z M343.8832092,47.28228
				c0-0.8268509-0.1361694-1.4416389-0.4066162-1.8443642c-0.2704163-0.4027252-0.6848145-0.6050606-1.2431946-0.6050606
				c-0.5408325,0-0.9494019,0.2042809-1.2276306,0.6128426c-0.2762451,0.4085617-0.4163208,1.0097313-0.4202271,1.8035088v1.402729
				c0,0.7976685,0.1381226,1.40662,0.4163513,1.8249092c0.2762756,0.4202347,0.6906738,0.6284103,1.2431946,0.6284103
				c0.5505981,0,0.959137-0.1926079,1.2237244-0.5797691c0.2646179-0.3852158,0.4027405-0.9786034,0.4143982-1.7762718V47.28228z"/>
			<path class="st5" d="M353.2334595,49.8970757c0-0.3891068-0.105072-0.6887169-0.3171387-0.8968887
				c-0.2120361-0.2062263-0.5933838-0.4085617-1.1439514-0.6070061c-0.5505981-0.1964989-0.9727783-0.4027252-1.2646179-0.618679
				c-0.2918091-0.2178993-0.5097046-0.4649849-0.6556396-0.7412491c-0.1439514-0.2782135-0.2178955-0.5953331-0.2178955-0.9533119
				c0-0.6206245,0.2081604-1.1303558,0.620636-1.5311356c0.4143982-0.4007797,0.9552612-0.6011696,1.6245117-0.6011696
				c0.459137,0,0.8677063,0.1011696,1.2256775,0.3054504c0.3580017,0.2042809,0.6322937,0.4902725,0.8268738,0.8540878
				c0.1925964,0.3657608,0.2898865,0.7665405,0.2898865,1.2023392h-0.9883423c0-0.4824905-0.1167297-0.8579788-0.3501892-1.1225739
				c-0.2315369-0.2645912-0.5661621-0.3968887-1.0039062-0.3968887c-0.3968811,0-0.7042847,0.1108971-0.9241333,0.3326874
				c-0.2178955,0.2237358-0.3268433,0.5350227-0.3268433,0.937748c0,0.3287964,0.1186829,0.6050606,0.3540955,0.8287964
				c0.2373352,0.2217903,0.6011658,0.4202347,1.0953369,0.5953331c0.7704163,0.2548637,1.3210144,0.5700417,1.6517334,0.9416389
				c0.3327026,0.3715973,0.4980774,0.8599243,0.4980774,1.4610939c0,0.6342468-0.2062378,1.1400833-0.6186829,1.5214081
				c-0.4105225,0.3813248-0.9708252,0.5719872-1.6809387,0.5719872c-0.4552612,0-0.8735657-0.0992241-1.2587585-0.2976685
				c-0.3852234-0.1984444-0.6887207-0.4766541-0.9085693-0.8365784s-0.3307495-0.772377-0.3307495-1.2393036h0.9883423
				c0,0.484436,0.1361694,0.8599243,0.4066162,1.1284103c0.2704163,0.2684822,0.6381226,0.4027252,1.1031189,0.4027252
				c0.4338379,0,0.7587585-0.1108971,0.9786072-0.3326874C353.1245117,50.5838509,353.2334595,50.2803459,353.2334595,49.8970757z"
				/>
		</g>
	</g>
</g>
</svg>